<?xml version="1.0" encoding="iso-8859-1"?>
<!-- Generator: Adobe Illustrator 19.0.0, SVG Export Plug-In . SVG Version: 6.00 Build 0)  -->
<svg xmlns="http://www.w3.org/2000/svg" xmlns:xlink="http://www.w3.org/1999/xlink" version="1.1" id="Layer_1" x="0px" y="0px" viewBox="0 0 511.999 511.999" style="enable-background:new 0 0 511.999 511.999;" xml:space="preserve" width="512px" height="512px">
<g>
	<g>
		<path d="M423.872,106.667H277.333V21.333C277.333,9.557,267.776,0,256,0s-21.333,9.557-21.333,21.333v85.333h-128    C47.851,106.667,0,154.517,0,213.333V384c0,11.776,9.557,21.333,21.333,21.333H192v85.333c0,11.776,9.557,21.333,21.333,21.333    h85.333c11.776,0,21.333-9.557,21.333-21.333v-85.333h170.667c11.797,0,21.333-9.557,21.333-21.333V194.795    C512,146.219,472.448,106.667,423.872,106.667z M277.333,469.333h-42.667v-64h42.667V469.333z M469.334,362.667L469.334,362.667    H298.667h-85.333V213.333c0-6.784-0.789-13.355-2.005-19.776c-0.384-2.048-1.003-4.011-1.515-6.016    c-1.088-4.331-2.347-8.555-3.925-12.651c-0.853-2.176-1.771-4.267-2.752-6.357c-1.792-3.84-3.819-7.531-6.037-11.093    c-1.152-1.856-2.24-3.733-3.499-5.504c-0.597-0.832-1.045-1.792-1.643-2.603h231.915c25.067,0,45.461,20.395,45.461,45.461    V362.667z" fill="#343e5c"/>
	</g>
</g>
<g>
</g>
<g>
</g>
<g>
</g>
<g>
</g>
<g>
</g>
<g>
</g>
<g>
</g>
<g>
</g>
<g>
</g>
<g>
</g>
<g>
</g>
<g>
</g>
<g>
</g>
<g>
</g>
<g>
</g>
</svg>
